<?xml version="1.0" standalone="no"?>
<!DOCTYPE svg PUBLIC "-//W3C//DTD SVG 20010904//EN"
 "http://www.w3.org/TR/2001/REC-SVG-20010904/DTD/svg10.dtd">
<svg version="1.0" xmlns="http://www.w3.org/2000/svg"
 width="2108.000000pt" height="2016.000000pt" viewBox="0 0 2108.000000 2016.000000"
 preserveAspectRatio="xMidYMid meet">

<g transform="translate(0.000000,2016.000000) scale(0.100000,-0.100000)"
fill="#000000" stroke="none">
<path d="M10225 19940 c-372 -16 -687 -48 -1100 -111 -262 -41 -796 -147 -870
-173 -22 -8 -125 -38 -230 -66 -321 -87 -597 -179 -941 -313 -787 -308 -1636
-780 -2274 -1265 -975 -742 -1665 -1463 -2302 -2407 -418 -618 -797 -1363
-1029 -2018 l-49 -138 -10 -312 c-5 -171 -8 -313 -5 -315 3 -3 5 2 5 11 0 26
140 441 230 682 320 854 757 1657 1283 2360 293 391 554 693 897 1036 483 485
927 851 1470 1214 1048 701 2141 1163 3380 1429 387 83 901 153 1375 188 222
16 937 16 1180 0 1092 -73 2121 -315 3125 -735 830 -348 1644 -837 2351 -1413
365 -297 858 -770 1140 -1094 739 -845 1322 -1791 1714 -2779 106 -268 225
-609 292 -835 l58 -197 3 153 c5 256 -22 491 -79 673 -64 209 -269 692 -430
1015 -758 1517 -1901 2811 -3329 3767 -331 221 -748 462 -1160 668 -539 270
-1256 533 -1884 691 -456 114 -1177 233 -1566 259 -47 3 -150 10 -230 16 -200
14 -785 19 -1015 9z"/>
<path d="M10285 19193 c-340 -11 -815 -63 -1195 -129 -422 -73 -900 -196
-1345 -347 -1043 -354 -2040 -916 -2897 -1631 -432 -361 -882 -819 -1234
-1256 -620 -770 -1124 -1669 -1450 -2588 -561 -1579 -679 -3204 -348 -4814
286 -1394 866 -2637 1752 -3753 387 -487 924 -1025 1414 -1417 545 -436 1060
-765 1673 -1068 520 -258 948 -424 1510 -585 633 -181 1288 -293 1965 -335
213 -13 840 -13 1045 0 1807 116 3461 727 4910 1813 1218 914 2190 2129 2812
3516 370 825 642 1865 727 2781 38 404 48 939 26 1310 -99 1633 -617 3184
-1504 4500 -325 482 -648 878 -1036 1274 -512 521 -1035 947 -1622 1320 -950
604 -1986 1022 -3073 1241 -676 135 -1405 193 -2130 168z"/>
</g>
</svg>
